<svg width="1280" height="640" viewBox="0 0 1280 640" fill="none" xmlns="http://www.w3.org/2000/svg">
  <defs>
    <linearGradient id="bg" x1="0" y1="0" x2="1280" y2="640" gradientUnits="userSpaceOnUse">
      <stop offset="0" stop-color="#07131F"/>
      <stop offset="1" stop-color="#0E1F2D"/>
    </linearGradient>
    <linearGradient id="accent" x1="260" y1="140" x2="1020" y2="500" gradientUnits="userSpaceOnUse">
      <stop offset="0" stop-color="#19D49D"/>
      <stop offset="1" stop-color="#0EA5E9"/>
    </linearGradient>
    <filter id="glow" x="-20%" y="-20%" width="140%" height="140%">
      <feGaussianBlur stdDeviation="12" result="blur"/>
      <feMerge>
        <feMergeNode in="blur"/>
        <feMergeNode in="SourceGraphic"/>
      </feMerge>
    </filter>
  </defs>

  <rect x="0" y="0" width="1280" height="640" fill="url(#bg)"/>

  <g opacity="0.3">
    <path d="M0 80H1280" stroke="#1E3A4D" stroke-width="1"/>
    <path d="M0 160H1280" stroke="#1E3A4D" stroke-width="1"/>
    <path d="M0 240H1280" stroke="#1E3A4D" stroke-width="1"/>
    <path d="M0 320H1280" stroke="#1E3A4D" stroke-width="1"/>
    <path d="M0 400H1280" stroke="#1E3A4D" stroke-width="1"/>
    <path d="M0 480H1280" stroke="#1E3A4D" stroke-width="1"/>
    <path d="M0 560H1280" stroke="#1E3A4D" stroke-width="1"/>
    <path d="M80 0V640" stroke="#1E3A4D" stroke-width="1"/>
    <path d="M240 0V640" stroke="#1E3A4D" stroke-width="1"/>
    <path d="M400 0V640" stroke="#1E3A4D" stroke-width="1"/>
    <path d="M560 0V640" stroke="#1E3A4D" stroke-width="1"/>
    <path d="M720 0V640" stroke="#1E3A4D" stroke-width="1"/>
    <path d="M880 0V640" stroke="#1E3A4D" stroke-width="1"/>
    <path d="M1040 0V640" stroke="#1E3A4D" stroke-width="1"/>
    <path d="M1200 0V640" stroke="#1E3A4D" stroke-width="1"/>
  </g>

  <rect x="190" y="120" width="900" height="400" rx="20" fill="#0A1723" stroke="#184057" stroke-width="2"/>
  <rect x="220" y="165" width="840" height="310" rx="16" fill="#08121B" stroke="#163345" stroke-width="1.5"/>

  <g filter="url(#glow)">
    <path d="M280 210H450" stroke="url(#accent)" stroke-width="5" stroke-linecap="round"/>
    <path d="M280 250H500" stroke="url(#accent)" stroke-width="5" stroke-linecap="round"/>
    <path d="M280 290H460" stroke="url(#accent)" stroke-width="5" stroke-linecap="round"/>
  </g>

  <rect x="620" y="198" width="360" height="230" rx="14" fill="#0B1A27" stroke="#1B4357" stroke-width="1.5"/>
  <circle cx="670" cy="254" r="10" fill="#19D49D"/>
  <circle cx="670" cy="298" r="10" fill="#0EA5E9"/>
  <circle cx="670" cy="342" r="10" fill="#F59E0B"/>
  <path d="M698 254H936" stroke="#3B6A80" stroke-width="3" stroke-linecap="round"/>
  <path d="M698 298H916" stroke="#3B6A80" stroke-width="3" stroke-linecap="round"/>
  <path d="M698 342H904" stroke="#3B6A80" stroke-width="3" stroke-linecap="round"/>

  <text x="640" y="92" text-anchor="middle" fill="#E2F4FF" font-size="64" font-family="Segoe UI, Arial, sans-serif" font-weight="700">SecTools</text>
  <text x="640" y="552" text-anchor="middle" fill="#84AFC5" font-size="30" font-family="Segoe UI, Arial, sans-serif">Browser-Based Security Toolkit</text>
</svg>
